<svg xmlns="http://www.w3.org/2000/svg" width="24" height="24" viewBox="0 0 24 24">

    <g id="react">
        <path fill="royalblue"
              d="M12 10.11c1.03 0 1.87.84 1.87 1.89c0 1-.84 1.85-1.87 1.85c-1.03 0-1.87-.85-1.87-1.85c0-1.05.84-1.89 1.87-1.89M7.37 20c.63.38 2.01-.2 3.6-1.7c-.52-.59-1.03-1.23-1.51-1.9a22.7 22.7 0 0 1-2.4-.36c-.51 2.14-.32 3.61.31 3.96m.71-5.74l-.29-.51c-.11.29-.22.58-.29.86c.27.06.57.11.88.16l-.3-.51m6.54-.76l.81-1.5l-.81-1.5c-.3-.53-.62-1-.91-1.47C13.17 9 12.6 9 12 9c-.6 0-1.17 0-1.71.03c-.29.47-.61.94-.91 1.47L8.57 12l.81 1.5c.3.53.62 1 .91 1.47c.54.03 1.11.03 1.71.03c.6 0 1.17 0 1.71-.03c.29-.47.61-.94.91-1.47M12 6.78c-.19.22-.39.45-.59.72h1.18c-.2-.27-.4-.5-.59-.72m0 10.44c.19-.22.39-.45.59-.72h-1.18c.2.27.4.5.59.72M16.62 4c-.62-.38-2 .2-3.59 1.7c.52.59 1.03 1.23 1.51 1.9c.82.08 1.63.2 2.4.36c.51-2.14.32-3.61-.32-3.96m-.7 5.74l.29.51c.11-.29.22-.58.29-.86c-.27-.06-.57-.11-.88-.16l.3.51m1.45-7.05c1.47.84 1.63 3.05 1.01 5.63c2.54.75 4.37 1.99 4.37 3.68c0 1.69-1.83 2.93-4.37 3.68c.62 2.58.46 4.79-1.01 5.63c-1.46.84-3.45-.12-5.37-1.95c-1.92 1.83-3.91 2.79-5.38 1.95c-1.46-.84-1.62-3.05-1-5.63c-2.54-.75-4.37-1.99-4.37-3.68c0-1.69 1.83-2.93 4.37-3.68c-.62-2.58-.46-4.79 1-5.63c1.47-.84 3.46.12 5.38 1.95c1.92-1.83 3.91-2.79 5.37-1.95M17.08 12c.34.75.64 1.5.89 2.26c2.1-.63 3.28-1.53 3.28-2.26c0-.73-1.18-1.63-3.28-2.26c-.25.76-.55 1.51-.89 2.26M6.92 12c-.34-.75-.64-1.5-.89-2.26c-2.1.63-3.28 1.53-3.28 2.26c0 .73 1.18 1.63 3.28 2.26c.25-.76.55-1.51.89-2.26m9 2.26l-.3.51c.31-.05.61-.1.88-.16c-.07-.28-.18-.57-.29-.86l-.29.51m-2.89 4.04c1.59 1.5 2.97 2.08 3.59 1.7c.64-.35.83-1.82.32-3.96c-.77.16-1.58.28-2.4.36c-.48.67-.99 1.31-1.51 1.9M8.08 9.74l.3-.51c-.31.05-.61.1-.88.16c.07.28.18.57.29.86l.29-.51m2.89-4.04C9.38 4.2 8 3.62 7.37 4c-.63.35-.82 1.82-.31 3.96a22.7 22.7 0 0 1 2.4-.36c.48-.67.99-1.31 1.51-1.9Z"/>
    </g>

    <g id="redux" fill="none">
        <g fill="none">
            <g clip-path="url(#akarIconsReduxFill0)">
                <path fill="royalblue"
                      d="M16.63 16.563c.885-.092 1.557-.863 1.527-1.788a1.723 1.723 0 0 0-1.71-1.665h-.062c-.947.03-1.68.832-1.65 1.788c.032.463.215.863.49 1.14c-1.039 2.067-2.627 3.577-5.01 4.841c-1.618.864-3.298 1.172-4.977.956c-1.375-.185-2.444-.802-3.116-1.819c-.977-1.51-1.068-3.145-.244-4.779c.58-1.171 1.497-2.035 2.077-2.466a16.987 16.987 0 0 1-.397-1.573C-.871 14.436-.412 18.814.93 20.88c1.008 1.542 3.054 2.498 5.315 2.498a7.45 7.45 0 0 0 1.832-.216c3.91-.77 6.872-3.114 8.552-6.598Zm5.375-3.823c-2.321-2.744-5.742-4.255-9.651-4.255h-.489a1.677 1.677 0 0 0-1.496-.925h-.062c-.946.031-1.68.833-1.649 1.789c.03.925.794 1.664 1.71 1.664h.062a1.721 1.721 0 0 0 1.496-1.048h.55c2.321 0 4.52.678 6.505 2.004c1.527 1.018 2.627 2.343 3.237 3.947c.52 1.294.49 2.558-.06 3.638c-.856 1.634-2.291 2.528-4.185 2.528c-1.221 0-2.382-.37-2.993-.648a18.07 18.07 0 0 1-1.374 1.11c1.313.617 2.657.956 3.94.956c2.932 0 5.1-1.634 5.925-3.268c.885-1.788.824-4.871-1.466-7.492ZM6.49 17.087c.03.925.794 1.665 1.71 1.665h.061c.947-.03 1.68-.832 1.65-1.788a1.723 1.723 0 0 0-1.71-1.665h-.062a.53.53 0 0 0-.214.03c-1.252-2.096-1.771-4.377-1.588-6.844c.122-1.85.733-3.453 1.802-4.779c.886-1.14 2.596-1.695 3.757-1.726c3.237-.062 4.611 4.008 4.703 5.642c.397.092 1.069.308 1.527.462C17.759 3.09 14.706.5 11.773.5C9.025.5 6.49 2.504 5.482 5.464c-1.405 3.946-.489 7.738 1.222 10.729c-.153.216-.245.555-.214.894Z"/>
            </g>
            <defs>
                <clipPath id="akarIconsReduxFill0">
                    <path fill="#fff" d="M0 0h24v24H0z"/>
                </clipPath>
            </defs>
        </g>

        <g id="styledComponents">
            <g fill="none">
                <rect width="256" height="256" fill="url(#skillIconsStyledcomponents0)" rx="60"/>
                <path fill="#fff"
                      d="m11.487 129.079l50.304 20.384v14.269l-59.55-27.591v-8.372l9.246 1.31Zm50.304-16.743L11.56 133.01l-9.318 1.02v-8.445L61.79 98.067v14.269Zm179.58 19.655l-51.76-20.165V97.921l62.17 27.518v8.518l-10.41-1.966Zm-51.76 17.763l51.906-20.602l10.264-1.529v8.445l-62.17 27.591v-13.905Z"/>
                <path fill="#B956A6" fill-rule="evenodd"
                      d="M176.077 61.099c-.288 4.566-2.345 9.334-1.772 13.773c3.593 6.354 11.501 7.367 18.025 7.803c4.52.808 4.463-2.185 4.16-5.547l.055-16.124c-6.823.025-13.648-.067-20.468.095Zm-53.801 12.77c-11.108 1.886-22.368 7.194-31.609 13.584c-7.438 5.789 6.385 11.399 11.4 12.337c10.09.123 19.039-6.683 25.667-13.747c2.164-2.97 4.867-7.517 2.148-10.96c-2.076-1.8-5.095-1.363-7.606-1.213Zm23.637 16.155c-9.133 1.74-17.823 5.504-25.512 10.745c-5.637 1.77-10.283 7.959-3.298 11.06c7.335 5.845 15.836 4.413 22.591.467c6.186-3.677 12.868-8.214 15.73-15.136c2.703-7.583-4.271-7.864-9.511-7.136Zm25.909 29.383c-1.701 7.104-8.855 10.334-12.661 15.963c-3.112 4.106-1.671 8.943 1.872 12.175c1.725 3.577 4.749 5.576 7.992 2.469c8.352-5.678 10.662-16.738 10.315-26.321c.617-3.958-3.924-.38-7.518-4.286Zm-31.783 13.343c-11.091 1.898-22.184 7.302-31.429 13.682c-7.177 5.781 6.34 11.179 11.396 12.035c10.277.015 19.444-6.608 25.942-14.13c2.26-2.987 4.999-8.788.524-11.163c-2.001-.848-4.324-.599-6.433-.424Z"
                      clip-rule="evenodd"/>
                <path fill="#FCCC44" fill-rule="evenodd"
                      d="M90.667 87.453c-8.53 3.413-16.758 7.557-24.884 11.897c-1.51 5.615-.299 12.568-.69 18.725c-.03 25.316-.016 50.633-.02 75.949h18.82c3.8-3.578 8.56-6.197 12.688-9.446c15.894-11.399 31.783-22.842 47.656-34.209c1.168.525.42-6.871-2.142-1.734c-6.071 5.713-14.129 10.412-22.658 9.953c-4.84-1.592-12.642-4.293-12.691-10.224c3.407-4.011-6.286 2.1-8.938 2.975c-8.622 4.14-17.04 8.763-25.68 12.826c2.076-2.23 5.96-4.309 8.714-6.521c19.673-14.122 39.341-28.299 59.061-42.41c3.793-2.663 7.457-5.568 11.367-8.057c.357 1.379 1.027-6.593-1.881-1.685c-5.928 5.876-13.924 10.25-22.357 10.31c-4.743-1.44-14.845-4.883-12.596-11.007c1.097-2.149-10.188 4.581-5.202.786c5.307-3.878 10.656-7.687 16.004-11.525c2.701-.203 2.126-10.236-1.544-3.764c-6.165 5.417-14.265 10.373-22.756 9.198c-4.77-1.373-10.493-4.032-12.227-9.02c-.574-1.198 3.212-3.065 1.956-3.017Zm35.339 6.193c-.473 1.353.857-.494 0 0Z"
                      clip-rule="evenodd"/>
                <path fill="#62777F" fill-rule="evenodd"
                      d="M179.899 80.75c-2.663 12.716-5.574 26.025-8.077 38.657c7.192 9.064 7.889-5.726 9.147-9.908c2.033-8.741 4.441-15.341 4.696-24.391c.54-3.089-3.09-4.96-5.766-4.359Zm8.251 9.972c-.225 1.303.328.245 0 0Zm-8.39 28.514c.346.745.346-.746 0 0Z"
                      clip-rule="evenodd"/>
                <path fill="#4E5E67" fill-rule="evenodd"
                      d="M184.616 82.19c2.244 12.602-5.189 27.912-7.62 39.794c5.52-4.062 9.785-22.492 10.875-29.706c.281-.825.627-2.901.702-2.976c.347-1.751 3.58-4.718 3.757-6.627c1.882-1.328-9.25-1.542-7.714-.486Zm-4.577 37.046c-.347.745-.347-.746 0 0Z"
                      clip-rule="evenodd"/>
                <path fill="#DC9624" fill-rule="evenodd"
                      d="M90.854 87.663c-3.112 3.116-1.944 2.355.372-.236l-.372.236Zm33.66 1.543c-3.605 5.417-16.605 9.947-18.242 10.298c7.82-1.465 15.109-6.33 20.238-12.028c-.815.363-1.299 1.216-1.996 1.73Zm-35.798 1.759c1.943 4.672 9.008 7.776 12.441 8.5c-4.687-1.51-10.204-4.188-12.441-8.5Zm37.01 2.702c-.981 1.158-4.475 2.89-6.317 4.59c-3.951 2.914-8.038 5.622-11.944 8.609c2.487-.107 9.775-5.551 6.039-.027c3.166 5.449 10.059 9.238 16.344 8.892c8.3-1.303 15.954-5.892 21.456-12.274c-6.679 6.609-15.509 12.829-25.28 11.972c-4.729-1.092-17.651-7.767-9.007-12.446c3.048-2.507 8.303-3.82 8.898-8.226c-.125-.55.9-1.087-.189-1.09Zm-23.659 6.123c3.145.411 3.145-.41 0 0Zm49.003 7.525c-12.479 8.694-24.777 17.728-37.148 26.578c-14.02 10.034-27.98 20.105-41.996 30.131c5.27-1.777 10.55-5.247 15.785-7.644c7.21-3.814 14.812-6.827 21.558-11.46c13.338-7.852 27.444-15.333 37.703-27.346c2.239-2.626 4.484-6.853 4.584-9.696c-.323.091-.078-1.137-.486-.563Zm-42.46 39.117c-2.245 2.537-3.157 4.35-.827 1.124c-.041.374 1.891-2.003.827-1.124Zm34.156 1.214c-5.914 6.236-14.661 10.734-22.868 11.037c9.488.069 18.048-5.563 24.476-12.207c-.422-.51-1.277 1.188-1.608 1.17Zm1.807 1.96c-19.869 14.464-40.424 29.467-60.36 43.879c3.14.985 9.979 1.447 13.1-2.574c6.64-4.582 14.105-7.951 20.767-12.595c9.647-6.26 19.976-13.102 25.455-23.623c.261-1.411 2.2-3.949 1.038-5.087Zm-37.813.918c.922 3.892 12.448 8.359 11.198 7.504c-4.25-1.49-8.466-3.812-11.198-7.504Z"
                      clip-rule="evenodd"/>
                <defs>
                    <linearGradient id="skillIconsStyledcomponents0" x1="0" x2="256" y1="256" y2="0"
                                    gradientUnits="userSpaceOnUse">
                        <stop stop-color="#DB7093"/>
                        <stop offset="1" stop-color="#F3B661"/>
                    </linearGradient>
                </defs>
            </g>
        </g>
    </g>


</svg>