<svg xmlns="http://www.w3.org/2000/svg" width="24" height="24" viewBox="0 0 24 24">

    <g id="react">
        <path fill="royalblue"
              d="M12 10.11c1.03 0 1.87.84 1.87 1.89c0 1-.84 1.85-1.87 1.85c-1.03 0-1.87-.85-1.87-1.85c0-1.05.84-1.89 1.87-1.89M7.37 20c.63.38 2.01-.2 3.6-1.7c-.52-.59-1.03-1.23-1.51-1.9a22.7 22.7 0 0 1-2.4-.36c-.51 2.14-.32 3.61.31 3.96m.71-5.74l-.29-.51c-.11.29-.22.58-.29.86c.27.06.57.11.88.16l-.3-.51m6.54-.76l.81-1.5l-.81-1.5c-.3-.53-.62-1-.91-1.47C13.17 9 12.6 9 12 9c-.6 0-1.17 0-1.71.03c-.29.47-.61.94-.91 1.47L8.57 12l.81 1.5c.3.53.62 1 .91 1.47c.54.03 1.11.03 1.71.03c.6 0 1.17 0 1.71-.03c.29-.47.61-.94.91-1.47M12 6.78c-.19.22-.39.45-.59.72h1.18c-.2-.27-.4-.5-.59-.72m0 10.44c.19-.22.39-.45.59-.72h-1.18c.2.27.4.5.59.72M16.62 4c-.62-.38-2 .2-3.59 1.7c.52.59 1.03 1.23 1.51 1.9c.82.08 1.63.2 2.4.36c.51-2.14.32-3.61-.32-3.96m-.7 5.74l.29.51c.11-.29.22-.58.29-.86c-.27-.06-.57-.11-.88-.16l.3.51m1.45-7.05c1.47.84 1.63 3.05 1.01 5.63c2.54.75 4.37 1.99 4.37 3.68c0 1.69-1.83 2.93-4.37 3.68c.62 2.58.46 4.79-1.01 5.63c-1.46.84-3.45-.12-5.37-1.95c-1.92 1.83-3.91 2.79-5.38 1.95c-1.46-.84-1.62-3.05-1-5.63c-2.54-.75-4.37-1.99-4.37-3.68c0-1.69 1.83-2.93 4.37-3.68c-.62-2.58-.46-4.79 1-5.63c1.47-.84 3.46.12 5.38 1.95c1.92-1.83 3.91-2.79 5.37-1.95M17.08 12c.34.75.64 1.5.89 2.26c2.1-.63 3.28-1.53 3.28-2.26c0-.73-1.18-1.63-3.28-2.26c-.25.76-.55 1.51-.89 2.26M6.92 12c-.34-.75-.64-1.5-.89-2.26c-2.1.63-3.28 1.53-3.28 2.26c0 .73 1.18 1.63 3.28 2.26c.25-.76.55-1.51.89-2.26m9 2.26l-.3.51c.31-.05.61-.1.88-.16c-.07-.28-.18-.57-.29-.86l-.29.51m-2.89 4.04c1.59 1.5 2.97 2.08 3.59 1.7c.64-.35.83-1.82.32-3.96c-.77.16-1.58.28-2.4.36c-.48.67-.99 1.31-1.51 1.9M8.08 9.74l.3-.51c-.31.05-.61.1-.88.16c.07.28.18.57.29.86l.29-.51m2.89-4.04C9.38 4.2 8 3.62 7.37 4c-.63.35-.82 1.82-.31 3.96a22.7 22.7 0 0 1 2.4-.36c.48-.67.99-1.31 1.51-1.9Z"/>
    </g>

    <g id="redux" fill="none">
        <g fill="none">
            <g clip-path="url(#akarIconsReduxFill0)">
                <path fill="royalblue"
                      d="M16.63 16.563c.885-.092 1.557-.863 1.527-1.788a1.723 1.723 0 0 0-1.71-1.665h-.062c-.947.03-1.68.832-1.65 1.788c.032.463.215.863.49 1.14c-1.039 2.067-2.627 3.577-5.01 4.841c-1.618.864-3.298 1.172-4.977.956c-1.375-.185-2.444-.802-3.116-1.819c-.977-1.51-1.068-3.145-.244-4.779c.58-1.171 1.497-2.035 2.077-2.466a16.987 16.987 0 0 1-.397-1.573C-.871 14.436-.412 18.814.93 20.88c1.008 1.542 3.054 2.498 5.315 2.498a7.45 7.45 0 0 0 1.832-.216c3.91-.77 6.872-3.114 8.552-6.598Zm5.375-3.823c-2.321-2.744-5.742-4.255-9.651-4.255h-.489a1.677 1.677 0 0 0-1.496-.925h-.062c-.946.031-1.68.833-1.649 1.789c.03.925.794 1.664 1.71 1.664h.062a1.721 1.721 0 0 0 1.496-1.048h.55c2.321 0 4.52.678 6.505 2.004c1.527 1.018 2.627 2.343 3.237 3.947c.52 1.294.49 2.558-.06 3.638c-.856 1.634-2.291 2.528-4.185 2.528c-1.221 0-2.382-.37-2.993-.648a18.07 18.07 0 0 1-1.374 1.11c1.313.617 2.657.956 3.94.956c2.932 0 5.1-1.634 5.925-3.268c.885-1.788.824-4.871-1.466-7.492ZM6.49 17.087c.03.925.794 1.665 1.71 1.665h.061c.947-.03 1.68-.832 1.65-1.788a1.723 1.723 0 0 0-1.71-1.665h-.062a.53.53 0 0 0-.214.03c-1.252-2.096-1.771-4.377-1.588-6.844c.122-1.85.733-3.453 1.802-4.779c.886-1.14 2.596-1.695 3.757-1.726c3.237-.062 4.611 4.008 4.703 5.642c.397.092 1.069.308 1.527.462C17.759 3.09 14.706.5 11.773.5C9.025.5 6.49 2.504 5.482 5.464c-1.405 3.946-.489 7.738 1.222 10.729c-.153.216-.245.555-.214.894Z"/>
            </g>
            <defs>
                <clipPath id="akarIconsReduxFill0">
                    <path fill="#fff" d="M0 0h24v24H0z"/>
                </clipPath>
            </defs>
        </g>
    </g>

    <g id="styledComponents">
        <path fill="royalblue"
              d="M128.392 245.844c-2 25.182 20.123 43.73 35.221 43.73c15.119-.705 74.002-50.326 74.002-50.326c27.694-35.025 27.814-50.599 27.814-62.84c-2.31-54.043-100.77 28.27-137.037 69.436zm243.565-20.918c13.365-28.286-4.616-59.703-43.728-32.108c-31.08 19.754-71.317 60.392-90.574 76.3c-8.932 18.041 13.71 67.551 49.59 41.41c42.41-30.812 73.38-59.785 84.712-85.602zm36.4-171.112L416.97 0H512v98.234l-34.827.416l-41.935 142.034c2.61 50.128-22.81 50.944-26.057 73.945c-8.161 57.81-72.81 105.112-97.527 105.112c-16.485-.478-28.536-19.372-32.584-35.836c46.48-51.41 108.984-91.811 108.984-91.811c3.903-27.037-4.675-35.645 24.173-58.684l27.528-144.738c-23.51-15.525-34.48-15.284-31.398-34.858zm-185.487 239.7c24.102 48.564 58.927 49.83 112.92-11.999c1.283 5.716 2.688 11.705.11 26.085C226.064 405.839 122.614 501.45 91.125 512H0v-24.44c14.82-20.552 136.448-120.871 222.87-194.046zm162.328 94.03c-4.945 42.036-43.27 78.82-94.482 124.456H128.412L265.24 396.745c23.62 53.755 65.574 45.968 119.959-9.201zM193.26 292.13L0 456.854v-106.87L113.73 257.4c6.084 34.461 43.355 64.806 79.53 34.732z"/>
    </g>

    <g id="typescript">
        <path fill="royalblue"
              d="M0 1.75C0 .784.784 0 1.75 0h12.5C15.216 0 16 .784 16 1.75v2a.75.75 0 0 1-1.5 0v-2a.25.25 0 0 0-.25-.25H1.75a.25.25 0 0 0-.25.25v12.5c0 .138.112.25.25.25h13.5a.75.75 0 0 1 0 1.5H1.75A1.75 1.75 0 0 1 0 14.25V1.75ZM4.75 6.5a.75.75 0 0 1 .75-.75h3.75a.75.75 0 0 1 0 1.5h-1v5.25a.75.75 0 0 1-1.5 0V7.25H5.5a.75.75 0 0 1-.75-.75Zm6.526.08c.418-.498 1.075-.83 1.974-.83c.835 0 1.465.286 1.89.735a.75.75 0 0 1-1.09 1.03c-.11-.116-.33-.265-.8-.265c-.5 0-.72.168-.826.295A.767.767 0 0 0 12.25 8c0 .104.043.3.174.455c.107.127.325.295.826.295c.076 0 .149.011.218.032c.663.094 1.164.39 1.506.798c.394.47.526 1.024.526 1.42c0 .396-.132.95-.526 1.42c-.418.498-1.075.83-1.974.83c-.835 0-1.465-.286-1.89-.735a.75.75 0 0 1 1.09-1.03c.11.116.33.265.8.265c.5 0 .72-.168.826-.295A.767.767 0 0 0 14 11c0-.104-.043-.3-.174-.455c-.107-.127-.325-.295-.826-.295a.748.748 0 0 1-.218-.032c-.663-.095-1.164-.39-1.506-.798A2.263 2.263 0 0 1 10.75 8c0-.396.132-.95.526-1.42Z"/>
    </g>

    <g id="git">
        <g fill="none" stroke="royalblue" stroke-linecap="round" stroke-linejoin="round" stroke-width="1.5">
            <path d="M16 22.027v-2.87a3.37 3.37 0 0 0-.94-2.61c3.14-.35 6.44-1.54 6.44-7a5.44 5.44 0 0 0-1.5-3.75a5.07 5.07 0 0 0-.09-3.77s-1.18-.35-3.91 1.48a13.38 13.38 0 0 0-7 0c-2.73-1.83-3.91-1.48-3.91-1.48A5.07 5.07 0 0 0 5 5.797a5.44 5.44 0 0 0-1.5 3.78c0 5.42 3.3 6.61 6.44 7a3.37 3.37 0 0 0-.94 2.58v2.87"/>
            <path d="M9 20.027c-3 .973-5.5 0-7-3"/>
        </g>
    </g>

    <g id="logoSvg">
        <path fill="royalblue"
              d="m356.1 32.57l50 25c-2.2 8.68-9.2 22.47-20.1 37.29C372.7 113 354.4 133.3 335.6 152c-18.7 18.8-38.1 36.2-53.5 48.7c-7.7 6.2-14.5 11.3-19.6 14.6c-2.5 1.6-4.6 2.9-6 3.6c-.3.1-.3.1-.5.1s-.2 0-.5-.1c-1.4-.7-3.5-2-6-3.6c-5.1-3.3-11.9-8.4-19.6-14.6c-15.4-12.5-34.8-29.9-53.5-48.7c-18.8-18.7-37.1-39-50.4-57.13c-10.9-14.83-17.9-28.62-20.1-37.3l50-25c14.6 29.73 29.3 62.14 44.2 90.03c16.2 30.5 31.6 55.7 51.9 65.9l4 2l4-2c20.3-10.2 35.7-35.4 51.9-65.9c14.9-27.89 29.6-60.31 44.2-90.03zM256 141.4c7.9 0 15.5.7 22.7 1.9c-8.2 12.2-16 21.5-22.7 26.5c-6.7-5-14.5-14.3-22.7-26.5c7.2-1.2 14.8-1.9 22.7-1.9zm83.1 32.5c23.3 22.7 35.9 54.6 35.9 86.5v.6c-33-12-75.9-17.6-119-17.6c-43.1 0-86 5.6-119 17.6v-.6c0-31.9 12.6-63.8 35.9-86.5c16.2 15.6 32.2 29.8 45.7 40.7c8 6.5 15.1 11.9 21 15.7c2.9 2 5.5 3.5 8 4.7c2.5 1.2 4.4 2.4 8.4 2.4s5.9-1.2 8.4-2.4s5.1-2.7 8-4.7c5.9-3.8 13-9.2 21-15.7c13.5-10.9 29.5-25.1 45.7-40.7zm64.3 38.3c20.6 20 31.5 26.2 63.8 37.3c-12.6 24.9-25.9 47.1-57 61.2l-17.3-52c-.1-5.7-.5-11.4-1.3-17.1zm-294.8 0l11.8 29.4c-.8 5.7-1.2 11.4-1.3 17.1l-17.3 52c-31.11-14.1-44.41-36.3-57.01-61.2c32.3-11.1 43.2-17.3 63.81-37.3zM265 261.5c45.1.9 89.3 8.7 117.2 22.2l28.4 85l-43.3-19.8c-3.9-23.6-6.3-46.3-6.3-58.5v-14.6l-13 6.5c-27.9 14-55.5 21.6-83 23zm-18 0v43.8c-27.5-1.4-55.1-9-83-23l-13-6.5v14.6c0 12.2-2.4 34.9-6.3 58.5l-43.3 19.8l28.4-85c27.9-13.5 72.1-21.3 117.2-22.2zm96.6 42.8c1.3 18.6 4.8 43.5 9.6 67.6c3 15.4 6.6 30.2 10.5 42.4c3.9 12.3 7.3 21.8 13.9 28.5l2.7 2.6h3.7c14.1 0 38.9 1.2 52.7 9.6c-1.8 1.4-4.8 3.2-8.7 4.9c-9.4 4-23.9 7.7-41.5 10.6c-35.2 5.9-82.9 8.9-130.5 8.9c-47.6 0-95.3-3-130.5-8.9c-17.6-2.9-32.11-6.6-41.51-10.6c-3.9-1.7-6.9-3.5-8.7-4.9c13.7-8.4 38.61-9.6 52.71-9.6h3.7l2.7-2.6c6.6-6.7 10-16.2 13.9-28.5c3.9-12.2 7.5-27 10.5-42.4c4.8-24.1 8.3-49 9.6-67.6c58 25.3 117.2 25.3 175.2 0zm-202.8 66.2c-2.9 14.1-6.2 27.6-9.6 38.4c-2.9 9.1-6.1 15.3-8.1 18.5c-11.2-.1-27.71 0-43.01 5.1l13.5-40.4zm230.4 0l47.2 21.6l13.5 40.4c-15.3-5.1-31.8-5.2-43-5.1c-2-3.2-5.2-9.4-8.1-18.5c-3.4-10.8-6.7-24.3-9.6-38.4z"/>
    </g>

    <g id="github">
        <path fill="royalblue"
              d="M20 10.25c0 2.234-.636 4.243-1.908 6.027c-1.271 1.784-2.914 3.018-4.928 3.703c-.234.045-.406.014-.514-.093a.539.539 0 0 1-.163-.4V16.67c0-.863-.226-1.495-.677-1.895a8.72 8.72 0 0 0 1.335-.24c.394-.107.802-.28 1.223-.52a3.66 3.66 0 0 0 1.055-.888c.282-.352.512-.819.69-1.402c.178-.583.267-1.252.267-2.008c0-1.077-.343-1.994-1.028-2.75c.32-.81.286-1.717-.105-2.723c-.243-.08-.594-.03-1.054.147a6.94 6.94 0 0 0-1.198.587l-.495.32a9.03 9.03 0 0 0-2.5-.346a9.03 9.03 0 0 0-2.5.347a11.52 11.52 0 0 0-.553-.36c-.23-.143-.593-.314-1.088-.514c-.494-.2-.868-.26-1.12-.18c-.381 1.005-.412 1.912-.09 2.722c-.686.756-1.03 1.673-1.03 2.75c0 .756.09 1.423.268 2.002c.178.578.406 1.045.683 1.401a3.53 3.53 0 0 0 1.048.894c.421.24.83.414 1.224.52c.395.108.84.188 1.335.241c-.347.32-.56.779-.638 1.375a2.539 2.539 0 0 1-.586.2a3.597 3.597 0 0 1-.742.067c-.287 0-.57-.096-.853-.287c-.282-.192-.523-.47-.723-.834a2.133 2.133 0 0 0-.631-.694c-.256-.178-.471-.285-.645-.32l-.26-.04c-.182 0-.308.02-.378.06c-.07.04-.09.09-.065.153a.738.738 0 0 0 .117.187a.961.961 0 0 0 .17.16l.09.066c.192.09.38.259.567.508c.187.249.324.476.41.68l.13.307c.113.338.304.612.574.821c.269.21.56.343.872.4c.312.058.614.09.905.094c.29.004.532-.011.723-.047l.299-.053c0 .338.002.734.007 1.188l.006.72c0 .16-.056.294-.17.4c-.112.108-.286.139-.52.094c-2.014-.685-3.657-1.92-4.928-3.703C.636 14.493 0 12.484 0 10.25c0-1.86.447-3.574 1.341-5.145a10.083 10.083 0 0 1 3.64-3.73A9.6 9.6 0 0 1 10 0a9.6 9.6 0 0 1 5.02 1.375a10.083 10.083 0 0 1 3.639 3.73C19.553 6.675 20 8.391 20 10.25Z"/>
    </g>

    <g id="storybook">
        <path fill="royalblue"
              d="m16.71.243l-.12 2.71a.18.18 0 0 0 .29.15l1.06-.8l.9.7a.18.18 0 0 0 .28-.14l-.1-2.76l1.33-.1a1.2 1.2 0 0 1 1.279 1.2v21.596a1.2 1.2 0 0 1-1.26 1.2l-16.096-.72a1.2 1.2 0 0 1-1.15-1.16l-.75-19.797a1.2 1.2 0 0 1 1.13-1.27L16.7.222zM13.64 9.3c0 .47 3.16.24 3.59-.08c0-3.2-1.72-4.89-4.859-4.89c-3.15 0-4.899 1.72-4.899 4.29c0 4.45 5.999 4.53 5.999 6.959c0 .7-.32 1.1-1.05 1.1c-.96 0-1.35-.49-1.3-2.16c0-.36-3.649-.48-3.769 0c-.27 4.03 2.23 5.2 5.099 5.2c2.79 0 4.969-1.49 4.969-4.18c0-4.77-6.099-4.64-6.099-6.999c0-.97.72-1.1 1.13-1.1c.45 0 1.25.07 1.19 1.87z"/>
    </g>

    <g id="css">
        <g fill="none">
            <rect width="256" height="256" fill="royalblue" rx="60"/>
            <path

                    fill="cornflowerblue"
                    d="m53.753 102.651l2.862 31.942h71.481v-31.942H53.753ZM128.095 38H48l2.904 31.942h77.191V38Zm0 180.841v-33.233l-.14.037l-35.574-9.605l-2.274-25.476H58.042l4.475 50.154l65.431 18.164l.147-.041Z"/>
            <path fill="cornflowerblue"
                  d="m167.318 134.593l-3.708 41.426l-35.625 9.616v33.231l65.483-18.148l.48-5.397l7.506-84.092l.779-8.578L208 38h-80.015v31.942h45.009l-2.906 32.709h-42.103v31.942h39.333Z"/>
        </g>
    </g>

    <g id="scss">
        <path fill="royalblue"
              d="M301.84 378.92c-.3.6-.6 1.08 0 0zm249.13-87a131.16 131.16 0 0 0-58 13.5c-5.9-11.9-12-22.3-13-30.1c-1.2-9.1-2.5-14.5-1.1-25.3s7.7-26.1 7.6-27.2s-1.4-6.6-14.3-6.7s-24 2.5-25.29 5.9a122.83 122.83 0 0 0-5.3 19.1c-2.3 11.7-25.79 53.5-39.09 75.3c-4.4-8.5-8.1-16-8.9-22c-1.2-9.1-2.5-14.5-1.1-25.3s7.7-26.1 7.6-27.2s-1.4-6.6-14.29-6.7s-24 2.5-25.3 5.9s-2.7 11.4-5.3 19.1s-33.89 77.3-42.08 95.4c-4.2 9.2-7.8 16.6-10.4 21.6c-.4.8-.7 1.3-.9 1.7c.3-.5.5-1 .5-.8c-2.2 4.3-3.5 6.7-3.5 6.7v.1c-1.7 3.2-3.6 6.1-4.5 6.1c-.6 0-1.9-8.4.3-19.9c4.7-24.2 15.8-61.8 15.7-63.1c-.1-.7 2.1-7.2-7.3-10.7c-9.1-3.3-12.4 2.2-13.2 2.2s-1.4 2-1.4 2s10.1-42.4-19.39-42.4c-18.4 0-44 20.2-56.58 38.5c-7.9 4.3-25 13.6-43 23.5c-6.9 3.8-14 7.7-20.7 11.4c-.5-.5-.9-1-1.4-1.5c-35.79-38.2-101.87-65.2-99.07-116.5c1-18.7 7.5-67.8 127.07-127.4c98-48.8 176.35-35.4 189.84-5.6c19.4 42.5-41.89 121.6-143.66 133c-38.79 4.3-59.18-10.7-64.28-16.3c-5.3-5.9-6.1-6.2-8.1-5.1c-3.3 1.8-1.2 7 0 10.1c3 7.9 15.5 21.9 36.79 28.9c18.7 6.1 64.18 9.5 119.17-11.8c61.78-23.8 109.87-90.1 95.77-145.6C386.52 18.32 293-.18 204.57 31.22c-52.69 18.7-109.67 48.1-150.66 86.4c-48.69 45.6-56.48 85.3-53.28 101.9c11.39 58.9 92.57 97.3 125.06 125.7c-1.6.9-3.1 1.7-4.5 2.5c-16.29 8.1-78.18 40.5-93.67 74.7c-17.5 38.8 2.9 66.6 16.29 70.4c41.79 11.6 84.58-9.3 107.57-43.6s20.2-79.1 9.6-99.5c-.1-.3-.3-.5-.4-.8c4.2-2.5 8.5-5 12.8-7.5c8.29-4.9 16.39-9.4 23.49-13.3c-4 10.8-6.9 23.8-8.4 42.6c-1.8 22 7.3 50.5 19.1 61.7c5.2 4.9 11.49 5 15.39 5c13.8 0 20-11.4 26.89-25c8.5-16.6 16-35.9 16-35.9s-9.4 52.2 16.3 52.2c9.39 0 18.79-12.1 23-18.3v.1s.2-.4.7-1.2c1-1.5 1.5-2.4 1.5-2.4v-.3c3.8-6.5 12.1-21.4 24.59-46c16.2-31.8 31.69-71.5 31.69-71.5a201.24 201.24 0 0 0 6.2 25.8c2.8 9.5 8.7 19.9 13.4 30c-3.8 5.2-6.1 8.2-6.1 8.2a.31.31 0 0 0 .1.2c-3 4-6.4 8.3-9.9 12.5c-12.79 15.2-28 32.6-30 37.6c-2.4 5.9-1.8 10.3 2.8 13.7c3.4 2.6 9.4 3 15.69 2.5c11.5-.8 19.6-3.6 23.5-5.4a82.2 82.2 0 0 0 20.19-10.6c12.5-9.2 20.1-22.4 19.4-39.8c-.4-9.6-3.5-19.2-7.3-28.2c1.1-1.6 2.3-3.3 3.4-5C434.8 301.72 450.1 270 450.1 270a201.24 201.24 0 0 0 6.2 25.8c2.4 8.1 7.09 17 11.39 25.7c-18.59 15.1-30.09 32.6-34.09 44.1c-7.4 21.3-1.6 30.9 9.3 33.1c4.9 1 11.9-1.3 17.1-3.5a79.46 79.46 0 0 0 21.59-11.1c12.5-9.2 24.59-22.1 23.79-39.6c-.3-7.9-2.5-15.8-5.4-23.4c15.7-6.6 36.09-10.2 62.09-7.2c55.68 6.5 66.58 41.3 64.48 55.8s-13.8 22.6-17.7 25s-5.1 3.3-4.8 5.1c.5 2.6 2.3 2.5 5.6 1.9c4.6-.8 29.19-11.8 30.29-38.7c1.6-34-31.09-71.4-89-71.1zm-429.18 144.7c-18.39 20.1-44.19 27.7-55.28 21.3C54.61 451 59.31 421.42 82 400c13.8-13 31.59-25 43.39-32.4c2.7-1.6 6.6-4 11.4-6.9c.8-.5 1.2-.7 1.2-.7c.9-.6 1.9-1.1 2.9-1.7c8.29 30.4.3 57.2-19.1 78.3zm134.36-91.4c-6.4 15.7-19.89 55.7-28.09 53.6c-7-1.8-11.3-32.3-1.4-62.3c5-15.1 15.6-33.1 21.9-40.1c10.09-11.3 21.19-14.9 23.79-10.4c3.5 5.9-12.2 49.4-16.2 59.2zm111 53c-2.7 1.4-5.2 2.3-6.4 1.6c-.9-.5 1.1-2.4 1.1-2.4s13.9-14.9 19.4-21.7c3.2-4 6.9-8.7 10.89-13.9c0 .5.1 1 .1 1.6c-.13 17.9-17.32 30-25.12 34.8zm85.58-19.5c-2-1.4-1.7-6.1 5-20.7c2.6-5.7 8.59-15.3 19-24.5a36.18 36.18 0 0 1 1.9 10.8c-.1 22.5-16.2 30.9-25.89 34.4z"/>
    </g>

    <g id="api">
        <path fill="royalblue"
              d="M7.312 9H5.688L3.5 15h1.607l.446-1.226h1.894L7.893 15H9.5Zm-1.394 3.774L6.5 11.18l.582 1.595ZM14.744 9h-3.5v6h1.5v-2h2a1.473 1.473 0 0 0 1.5-1.5v-1a1.473 1.473 0 0 0-1.5-1.5Zm0 2.5h-2v-1h2ZM18 9h1.5v6H18z"/>
        <path fill="royalblue"
              d="M22 6v12H2V6h20m0-2H2a2 2 0 0 0-2 2v12a2 2 0 0 0 2 2h20a2 2 0 0 0 2-2V6a2 2 0 0 0-2-2Z"/>
    </g>

    <g id="axios">
        <path fill="royalblue"
              d="M11.068 2.9v19.397L8.954 24V7.864H4.975L11.068 2.9zM14.934 0v15.767h4.091l-6.2 5.089V1.469L14.935 0z"/>
    </g>


    <!--    logo for contacts-->

    <g id="instagram">
        <path fill="currentColor"
              d="M7.8 2h8.4C19.4 2 22 4.6 22 7.8v8.4a5.8 5.8 0 0 1-5.8 5.8H7.8C4.6 22 2 19.4 2 16.2V7.8A5.8 5.8 0 0 1 7.8 2m-.2 2A3.6 3.6 0 0 0 4 7.6v8.8C4 18.39 5.61 20 7.6 20h8.8a3.6 3.6 0 0 0 3.6-3.6V7.6C20 5.61 18.39 4 16.4 4H7.6m9.65 1.5a1.25 1.25 0 0 1 1.25 1.25A1.25 1.25 0 0 1 17.25 8A1.25 1.25 0 0 1 16 6.75a1.25 1.25 0 0 1 1.25-1.25M12 7a5 5 0 0 1 5 5a5 5 0 0 1-5 5a5 5 0 0 1-5-5a5 5 0 0 1 5-5m0 2a3 3 0 0 0-3 3a3 3 0 0 0 3 3a3 3 0 0 0 3-3a3 3 0 0 0-3-3Z"/>
    </g>

    <g id="linkedin">
        <path fill="currentColor"
              d="M19 3a2 2 0 0 1 2 2v14a2 2 0 0 1-2 2H5a2 2 0 0 1-2-2V5a2 2 0 0 1 2-2h14m-.5 15.5v-5.3a3.26 3.26 0 0 0-3.26-3.26c-.85 0-1.84.52-2.32 1.3v-1.11h-2.79v8.37h2.79v-4.93c0-.77.62-1.4 1.39-1.4a1.4 1.4 0 0 1 1.4 1.4v4.93h2.79M6.88 8.56a1.68 1.68 0 0 0 1.68-1.68c0-.93-.75-1.69-1.68-1.69a1.69 1.69 0 0 0-1.69 1.69c0 .93.76 1.68 1.69 1.68m1.39 9.94v-8.37H5.5v8.37h2.77Z"/>
    </g>

    <g id="telegram">
        <path fill="currentColor"
              d="M12 2C6.48 2 2 6.48 2 12s4.48 10 10 10s10-4.48 10-10S17.52 2 12 2zm4.64 6.8c-.15 1.58-.8 5.42-1.13 7.19c-.14.75-.42 1-.68 1.03c-.58.05-1.02-.38-1.58-.75c-.88-.58-1.38-.94-2.23-1.5c-.99-.65-.35-1.01.22-1.59c.15-.15 2.71-2.48 2.76-2.69a.2.2 0 0 0-.05-.18c-.06-.05-.14-.03-.21-.02c-.09.02-1.49.95-4.22 2.79c-.4.27-.76.41-1.08.4c-.36-.01-1.04-.2-1.55-.37c-.63-.2-1.12-.31-1.08-.66c.02-.18.27-.36.74-.55c2.92-1.27 4.86-2.11 5.83-2.51c2.78-1.16 3.35-1.36 3.73-1.36c.08 0 .27.02.39.12c.1.08.13.19.14.27c-.01.06.01.24 0 .38z"/>
    </g>

    <g id="gmail">
        <path fill="currentColor"
              d="M20 18h-2V9.25L12 13L6 9.25V18H4V6h1.2l6.8 4.25L18.8 6H20m0-2H4c-1.11 0-2 .89-2 2v12a2 2 0 0 0 2 2h16a2 2 0 0 0 2-2V6a2 2 0 0 0-2-2Z"/>
    </g>
</svg>